<?xml version="1.0" encoding="utf-8"?>
<!-- Generator: Adobe Illustrator 27.5.0, SVG Export Plug-In . SVG Version: 6.00 Build 0)  -->
<svg version="1.1" id="Layer_1" xmlns="http://www.w3.org/2000/svg" xmlns:xlink="http://www.w3.org/1999/xlink" x="0px" y="0px"
	 viewBox="0 0 800 800" style="enable-background:new 0 0 800 800;" xml:space="preserve">
<style type="text/css">
	.st0{fill:none;stroke:#CFFF8D;stroke-width:50;stroke-linecap:round;stroke-linejoin:round;stroke-miterlimit:133.3333;}
	.st1{fill:none;stroke:#CFFF8D;stroke-width:50;stroke-miterlimit:133.3333;}
	.st2{fill:none;stroke:#CFFF8D;stroke-width:66.6667;stroke-linecap:round;stroke-linejoin:round;stroke-miterlimit:133.3333;}
</style>
<path class="st0" d="M733.3,300v200c0,83.3-16.7,141.7-54,179.3L466.7,466.7L724.3,209C730.3,235.3,733.3,265.3,733.3,300z"/>
<path class="st0" d="M724.3,209L209,724.3C108.7,701.3,66.7,632,66.7,500V300c0-166.7,66.7-233.3,233.3-233.3h200
	C632,66.7,701.3,108.7,724.3,209z"/>
<path class="st0" d="M679.3,679.3c-37.7,37.3-96,54-179.3,54H300c-34.7,0-64.7-3-91-9l257.7-257.7L679.3,679.3z"/>
<path class="st1" d="M208,266c22.7-97.7,169.3-97.7,192,0c13,57.3-23,106-54.7,136c-23,22-59.3,22-82.7,0
	C231,372,194.7,323.3,208,266z"/>
<path class="st2" d="M303.2,290h0.3"/>
</svg>
